<svg height="512pt" viewBox="-91 0 512 512" width="512pt" xmlns="http://www.w3.org/2000/svg"><path d="m328.460938 69.378906-19.367188-39.378906h5.90625c8.285156 0 15-6.714844 15-15s-6.714844-15-15-15c-45.382812 0-286.523438 0-300 0-8.285156 0-15 6.714844-15 15s6.714844 15 15 15h5.90625l-19.367188 39.378906c-.914062 1.855469-1.539062 4.246094-1.539062 6.621094v360c0 2.289062.621094 4.753906 1.539062 6.621094l30 61c2.523438 5.128906 7.742188 8.378906 13.460938 8.378906h240c5.71875 0 10.9375-3.25 13.460938-8.378906l30-61c.933593-1.898438 1.539062-4.363282 1.539062-6.621094v-360c0-2.335938-.617188-4.742188-1.539062-6.621094zm-298.460938 351.621094v-330h270v330zm245.660156-391 15.246094 31h-251.8125l15.246094-31zm0 452h-221.320312l-15.246094-31h251.8125zm0 0"/><path d="m201.707031 257.582031-46.582031-23.292969 23.289062-46.582031c3.707032-7.410156.703126-16.417969-6.707031-20.125-7.410156-3.703125-16.417969-.699219-20.121093 6.707031l-30 60c-3.707032 7.410157-.703126 16.421876 6.707031 20.125l46.582031 23.292969-23.289062 46.582031c-3.707032 7.410157-.703126 16.421876 6.707031 20.125 7.417969 3.710938 16.421875.691407 20.121093-6.707031l30-60c3.707032-7.410156.703126-16.417969-6.707031-20.125zm0 0"/><path d="m165 121c-57.898438 0-105 47.101562-105 105v60c0 57.898438 47.101562 105 105 105s105-47.101562 105-105v-60c0-57.898438-47.101562-105-105-105zm75 165c0 41.355469-33.644531 75-75 75s-75-33.644531-75-75v-60c0-41.355469 33.644531-75 75-75s75 33.644531 75 75zm0 0"/></svg>