<svg height="512pt" viewBox="0 -36 512 511" width="512pt" xmlns="http://www.w3.org/2000/svg"><path d="m512 30.5v-30h-512v30h31v21.125h-31v30h31v21.121094h-31v30h31v21.125h-31v30h31v21.125h-31v30h31v21.121094h-31v30h31v21.125h-31v30h31v21.125h-31v30h31v21.121093h-31v30h512v-30h-31v-21.121093h31v-30h-31v-21.125h31v-30h-31v-21.125h31v-30h-31v-21.121094h31v-30h-31v-21.125h31v-30h-31v-21.125h31v-30h-31v-21.121094h31v-30h-31v-21.125zm-61 378.988281h-390v-378.988281h390zm0 0"/><path d="m110.816406 325.488281 52.734375 21.761719 36.980469 43.464844 55.46875-13.4375 55.46875 13.4375 36.980469-43.464844 52.734375-21.761719 4.433594-56.878906 29.828124-48.613281-29.828124-48.617188-4.433594-56.878906-52.734375-21.761719-36.984375-43.460937-55.464844 13.4375-55.46875-13.4375-36.980469 43.460937-52.734375 21.761719-4.433594 56.878906-29.828124 48.617188 29.828124 48.613281zm145.183594-231.910156 44.582031-10.796875 29.71875 34.921875 42.40625 17.5 3.5625 45.710937 23.980469 39.082032-23.980469 39.082031-3.5625 45.707031-42.40625 17.5-29.714843 34.925782-44.585938-10.800782-44.582031 10.800782-29.71875-34.925782-42.40625-17.5-3.5625-45.707031-23.980469-39.082031 23.980469-39.082032 3.5625-45.710937 42.40625-17.5 29.714843-34.921875zm0 0"/><path d="m133.761719 219.996094 38.847656 48.128906 22.253906 57.746094 61.136719-9.605469 61.136719 9.605469 22.253906-57.746094 38.847656-48.128906-38.847656-48.132813-22.253906-57.746093-61.136719 9.609374-61.136719-9.609374-22.253906 57.746093zm65.148437-32.949219 15.234375-39.527344 41.855469 6.574219 41.855469-6.574219 15.234375 39.527344 26.597656 32.949219-26.597656 32.949218-15.234375 39.527344-41.855469-6.578125-41.855469 6.578125-15.234375-39.527344-26.597656-32.949218zm0 0"/><path d="m256 264.164062c24.355469 0 44.171875-19.8125 44.171875-44.167968 0-24.355469-19.816406-44.171875-44.171875-44.171875s-44.171875 19.816406-44.171875 44.171875c0 24.355468 19.816406 44.167968 44.171875 44.167968zm0-58.339843c7.8125 0 14.171875 6.355469 14.171875 14.171875 0 7.8125-6.359375 14.167968-14.171875 14.167968s-14.171875-6.355468-14.171875-14.167968c0-7.816406 6.359375-14.171875 14.171875-14.171875zm0 0"/></svg>