<svg viewBox="1 0 511 511.99985" xmlns="http://www.w3.org/2000/svg"><path d="m370.648438 189.257812c0 99.417969-80.945313 180-180 180-99.238282 0-180.398438-80.75-180.398438-180 0-99.246093 81.160156-179.257812 180.398438-179.257812 99.25 0 180 80.011719 180 179.257812zm0 0" fill="#424d63"/><path d="m331.230469 301.558594 44.199219 44.191406c-8.628907 8.640625-19.679688 19.609375-28.359376 28.210938l-44.132812-44.132813c10.441406-8.347656 19.933594-17.839844 28.28125-28.277344zm0 0" fill="#fafaff"/><path d="m489.300781 432.210938c14.089844 14.089843 17.519531 36.769531 5.867188 52.9375-14.828125 20.601562-43.738281 22.3125-60.917969 5.140624l-101.390625-102.261718c1.128906-1.117188 55.71875-55.078125 56.570313-56.558594zm0 0" fill="#e87288"/><path d="m188.800781 49.488281c-23.207031.4375-44.636719 5.589844-65.992187 17.511719h-.007813c-26.113281 14.558594-46.691406 37.355469-57.8125 60.800781-.1875.1875-3.804687 7.898438-5.867187 13.71875-.011719.011719-.019532.03125-.019532.039063-5.773437 15.808594-8.453124 32.050781-8.453124 47.921875 0 77.199219 62.8125 140 140 140 68.28125 0 130.734374-51.054688 139.0625-123.742188 9.828124-84.664062-57.328126-157.332031-140.910157-156.25zm0 0" fill="#cae9fc"/><path d="m260.25 120v120c0 11.050781-8.949219 20-20 20h-100c-11.050781 0-20-8.949219-20-20v-120zm0 0" fill="#e87288"/><path d="m90.5 100c5.519531 0 10-4.480469 10-10 0-5.5-4.472656-10-10-10-5.519531 0-10 4.480469-10 10 0 5.546875 4.519531 10 10 10zm0 0"/><path d="m140.25 270h100c16.570312 0 30-13.429688 30-30v-120c0-5.523438-4.476562-10-10-10h-140c-5.523438 0-10 4.476562-10 10v120c0 16.570312 13.429688 30 30 30zm-10-140h120v110c0 5.523438-4.476562 10-10 10h-100c-5.523438 0-10-4.476562-10-10zm0 0"/><path d="m160.671875 210h59.152344c5.757812 0 10.425781-4.667969 10.425781-10.425781v-43.285157c0-.753906-.316406-1.46875-.847656-2.003906-8.671875-8.738281-19.152344-2.738281-19.152344 5.714844v24.941406c0 2.792969-2.265625 5.058594-5.058594 5.058594h-29.886718c-2.792969 0-5.054688-2.265625-5.054688-5.058594v-28.652344c0-.753906-.316406-1.46875-.847656-2.003906-8.671875-8.738281-19.152344-2.738281-19.152344 5.714844v39.574219c0 5.757812 4.667969 10.425781 10.421875 10.425781zm0 0"/><path d="m380.898438 189.257812c0-104.535156-84.855469-189.257812-190-189.257812-104.984376 0-190.398438 84.902344-190.398438 189.257812 0 104.769532 85.414062 190 190.398438 190 39.921874 0 79.132812-12.796874 111.394531-36.183593l30.851562 30.851562c-4.296875 4.253907-7.0625 6.988281-7.066406 6.992188-1.886719 1.867187-2.953125 4.40625-2.96875 7.0625-.015625 2.652343 1.027344 5.203125 2.898437 7.089843l101.421876 102.292969c21.699218 21.683594 57.8125 19.039063 76.101562-6.371093 14.074219-19.527344 11.101562-47.84375-6.882812-65.824219l-99.867188-100.738281c-2.199219-2.21875-5.3125-3.28125-8.398438-2.875-2.601562.339843-4.941406 1.683593-6.542968 3.707031-.441406.484375-1.84375 1.953125-6.179688 6.328125l-30.945312-30.941406c23.386718-32.257813 36.183594-71.46875 36.183594-111.390626zm-33.550782 170.589844-29.421875-29.425781c4.953125-4.460937 9.675781-9.183594 14.136719-14.136719l29.46875 29.460938c-4.175781 4.164062-8.945312 8.902344-14.183594 14.101562zm-326.847656-170.589844c0-93.328124 76.441406-169.257812 170.398438-169.257812 93.738281 0 170 75.929688 170 169.257812 0 93.007813-75.546876 170-170 170-93.957032 0-170.398438-76.261718-170.398438-170zm369.273438 156.511719 92.703124 93.511719c11.15625 11.15625 13.230469 28.359375 4.828126 40.027344-11.410157 15.84375-33.128907 16.507812-45.703126 3.941406l-94.34375-95.152344c11.992188-11.871094 30.703126-30.425781 42.515626-42.328125zm0 0"/><path d="m263.820312 320.3125c.160157-.089844.144532-.078125 0 0zm0 0"/><path d="m340.8125 194.324219c2.726562-86.875-67.488281-156.152344-151.984375-155.050781-25.398437.480468-48.605469 6.527343-70.324219 18.597656-3.234375 1.65625-5.449218 5.023437-5.449218 8.910156 0 7.648438 8.253906 12.429688 14.878906 8.730469 18.078125-10.089844 37.441406-15.78125 61.246094-16.242188 73.214843-.953125 134 59.164063 131.644531 134.40625-2.390625 71.375-61.230469 125.582031-129.925781 125.582031-69.699219 0-132-56.082031-129.851563-136.242187.332031-6.980469 1.1875-13.9375 2.996094-22.234375 2.824219-12.429688 7.003906-23.078125 12.445312-33.207031 2.613281-4.863281.789063-10.929688-4.074219-13.542969-4.863281-2.613281-10.929687-.792969-13.542968 4.074219-3.863282 7.1875-6.9375 14.269531-8.914063 19.808593h-.003906c-2.011719 5.519532-3.496094 10.257813-5.429687 18.515626-21.167969 92.542968 49.832031 182.828124 146.375 182.828124 24.625 0 49.144531-5.917968 72.921874-18.945312 45.691407-25.132812 75.238282-73.429688 76.992188-125.988281zm0 0"/></svg>