<svg id="Layer_1" height="512" viewBox="0 0 512 512" width="512" xmlns="http://www.w3.org/2000/svg" data-name="Layer 1"><path d="m404.6 174h-17.6v76h-80v-76.069a31.454 31.454 0 0 1 17.324-28.549 5.941 5.941 0 0 0 2.524-8.05 5.731 5.731 0 0 0 -7.81-2.684 43.46 43.46 0 0 0 -24.038 39.283v76.069h-62v-55.108a31.743 31.743 0 0 1 17.643-28.549 6 6 0 0 0 -5.367-10.734 43.679 43.679 0 0 0 -24.276 39.283v55.108h-61v-34.147a31.577 31.577 0 0 1 17.46-28.553 5.966 5.966 0 0 0 2.592-8.05 5.844 5.844 0 0 0 -7.912-2.683 43.552 43.552 0 0 0 -24.14 39.286v34.147h-58v-12.415l-64.943-25.074 16.076 41.317a6 6 0 0 1 .015 4.344l-16.1 41.317 64.952-25.074v-12.415h58v34.147a43.51 43.51 0 0 0 24.094 39.282 5.6 5.6 0 0 0 2.586.635 6.047 6.047 0 0 0 2.8-11.368 31.6 31.6 0 0 1 -17.48-28.549v-34.147h61v55.108a43.679 43.679 0 0 0 24.276 39.283 6 6 0 0 0 5.367-10.734 31.743 31.743 0 0 1 -17.643-28.549v-55.108h62v76.069a43.389 43.389 0 0 0 23.958 39.283 5.345 5.345 0 0 0 2.518.634 6.085 6.085 0 0 0 2.888-11.368 31.488 31.488 0 0 1 -17.364-28.549v-76.069h80v76h17.6c45.459 0 82.444-36.538 82.444-82s-36.982-82-82.444-82zm17.681 65.292a21.022 21.022 0 1 1 21.022-21.022 21.046 21.046 0 0 1 -21.019 21.022z"/><path d="m422.284 209.248a9.022 9.022 0 1 0 9.022 9.022 9.032 9.032 0 0 0 -9.022-9.022z"/></svg>