<svg id="Layer_1" height="512" viewBox="0 0 512 512" width="512" xmlns="http://www.w3.org/2000/svg" data-name="Layer 1"><path d="m491.967 235.367a6 6 0 0 0 -2.71-4.406l-45.221-29.106a105.649 105.649 0 0 0 -57.542-16.855h-29.987a5.391 5.391 0 0 0 -5.507 5.753v59.247h-46.658c.113-22.753.133-41.18.057-54.825-.17-30.643-.447-30.909-2.6-33.063a6 6 0 0 0 -8.485.021 6.073 6.073 0 0 0 -1.487 6.069c.658 5.418.725 40.391.522 81.8h-38c.107-18.12.125-32.846.05-43.832-.172-25.639-.5-25.952-2.6-28.056a6 6 0 0 0 -8.485.021 6.072 6.072 0 0 0 -1.457 6.164c.618 4.843.679 32.842.492 65.7h-37.988c.408-52.917-.328-53.653-2.563-55.888a6 6 0 0 0 -8.485.021 6.07 6.07 0 0 0 -1.415 6.287c.573 4.212.635 25.02.461 49.58h-37.972c.345-32.972-.511-33.831-2.589-35.909a6 6 0 0 0 -9.819 6.463c.443 3.011.541 14.522.4 29.446h-35.379v-27.999a6.154 6.154 0 0 0 -4.614-5.8l-74.75-20a6.068 6.068 0 0 0 -7.636 5.8v108a6 6 0 0 0 7.553 5.8l74.833-20a6.154 6.154 0 0 0 4.614-5.8v-28h35.232c-.155 10.093-.387 20.989-.674 31.5a6 6 0 0 0 5.835 6.161h.166a6 6 0 0 0 6-5.837c0-.166.415-15.293.675-31.83h38.026c-.171 17.888-.437 36.619-.7 51.728a6.11 6.11 0 0 0 5.89 6.278h.108a6.142 6.142 0 0 0 6-6.056c0-.266.443-25.459.7-51.944h38.012c-.169 23.319-.44 47.91-.713 67.751a6.117 6.117 0 0 0 5.916 6.249h.085a6.143 6.143 0 0 0 6-6.082c.006-.345.457-33.513.714-67.918h38.013c-.168 28.329-.442 58.543-.726 83.766a6.123 6.123 0 0 0 5.929 6.234h.069a6.143 6.143 0 0 0 6-6.1c0-.427.465-41.58.719-83.9h46.724v59.247a5.391 5.391 0 0 0 5.507 5.753h29.987a105.649 105.649 0 0 0 57.542-16.855l45.221-29.168a5.949 5.949 0 0 0 .985-9.235l-15.757-15.75 15.757-15.753a5.993 5.993 0 0 0 1.725-4.872zm-396.967 50.033-63 16.781v-92.362l63 16.781zm366.758-33.639a6 6 0 0 0 0 8.486l14.749 14.749-38.985 25.075a93.674 93.674 0 0 1 -51.028 14.929h-23.494v-118h23.494a93.674 93.674 0 0 1 51.028 14.933l38.985 25.136z"/><path d="m398.92 215.333a18 18 0 1 0 18 18 18.021 18.021 0 0 0 -18-18zm0 24a6 6 0 1 1 6-6 6.006 6.006 0 0 1 -6 6z"/></svg>