<svg height="510pt" viewBox="0 -4 510.368 510" width="510pt" xmlns="http://www.w3.org/2000/svg"><path d="m254.976562 502.742188-254.976562-171.277344 254.976562-171.28125 97.183594 65.296875c37.230469 25.023437 82.0625 34.335937 126.207032 26.253906l32-5.871094-14.878907 28.929688c-34.160156 66.382812-84.945312 123.453125-146.863281 165.023437zm0 0" fill="#40c4ff"/><path d="m254.976562 422.742188-254.976562-171.277344 254.976562-171.28125 97.183594 65.296875c37.230469 25.023437 82.0625 34.335937 126.207032 26.253906l32-5.871094-14.878907 28.929688c-34.160156 66.382812-84.945312 123.453125-146.863281 165.023437zm0 0" fill="#ffee58"/><path d="m254.976562 342.742188-254.976562-171.277344 254.976562-171.28125 97.183594 65.296875c37.230469 25.023437 82.0625 34.335937 126.207032 26.253906l32-5.871094-14.878907 28.929688c-34.160156 66.382812-84.945312 123.453125-146.863281 165.023437zm0 0" fill="#fe9d58"/><g fill="#f9873a"><path d="m126.976562 153.191406h32v32h-32zm0 0"/><path d="m190.976562 121.191406h32v32h-32zm0 0"/><path d="m238.976562 89.191406h32v32h-32zm0 0"/><path d="m190.976562 185.191406h32v32h-32zm0 0"/><path d="m238.976562 233.191406h32v32h-32zm0 0"/><path d="m254.976562 153.191406h32v32h-32zm0 0"/><path d="m302.976562 121.191406h32v32h-32zm0 0"/><path d="m302.976562 185.191406h32v32h-32zm0 0"/></g><path d="m398.976562 121.191406h32v32h-32zm0 0" fill="#fff"/></svg>