<?xml version="1.0" encoding="iso-8859-1"?>
<!-- Generator: Adobe Illustrator 19.0.0, SVG Export Plug-In . SVG Version: 6.00 Build 0)  -->
<svg version="1.1" id="Layer_1" xmlns="http://www.w3.org/2000/svg" xmlns:xlink="http://www.w3.org/1999/xlink" x="0px" y="0px"
	 viewBox="0 0 511.999 511.999" style="enable-background:new 0 0 511.999 511.999;" xml:space="preserve">
<g>
	<path style="fill:#B3404A;" d="M474.358,398.824h-22.108c-20.755,0-37.64-16.886-37.64-37.641V226.421l-20.186-25.754v36.5
		c0,7.524-6.102,13.626-13.626,13.626s-13.626-6.102-13.626-13.626v-75.971c0-5.811,3.686-10.984,9.18-12.879
		c5.493-1.901,11.583-0.099,15.169,4.473l47.438,60.52c1.88,2.398,2.902,5.359,2.902,8.406v139.467c0,5.728,4.66,10.39,10.388,10.39
		h22.108c2.786,0,5.404-1.089,7.367-3.066c1.965-1.976,3.037-4.6,3.021-7.388l-0.88-157.912c-0.02-3.237-1.202-6.375-3.327-8.827
		l-87.27-100.619c-8.998-8.949-21.402-14.074-34.098-14.074c-7.524,0-13.626-6.102-13.626-13.626s6.102-13.626,13.626-13.626
		c20.069,0,39.671,8.189,53.778,22.466c0.206,0.21,0.407,0.426,0.6,0.65l87.576,100.972c6.384,7.358,9.933,16.777,9.993,26.522
		l0.88,157.913c0.061,10.09-3.826,19.595-10.943,26.758C493.936,394.879,484.455,398.824,474.358,398.824z"/>
	<path style="fill:#B3404A;" d="M354.203,459.563H157.796c-22.179,0-40.223-18.043-40.223-40.223V200.664l-20.186,25.754v134.763
		c0,20.755-16.886,37.641-37.641,37.641H37.64c-10.097,0-19.577-3.945-26.697-11.105c-7.118-7.163-11.004-16.667-10.943-26.765
		l0.88-157.898c0.06-9.751,3.608-19.169,9.992-26.531L98.45,75.552c0.193-0.223,0.394-0.439,0.6-0.65
		c14.107-14.278,33.707-22.466,53.778-22.466h6.61c2.867,0,5.663,0.905,7.986,2.585l88.56,64.068l42.764-31.064
		c6.087-4.423,14.608-3.073,19.032,3.017c4.423,6.089,3.073,14.609-3.017,19.032l-50.756,36.868
		c-4.769,3.462-11.222,3.466-15.994,0.016L155.026,79.69h-2.196c-12.696,0-25.101,5.125-34.098,14.074l-87.27,100.619
		c-2.127,2.451-3.308,5.589-3.327,8.834l-0.88,157.897c-0.018,2.795,1.055,5.419,3.021,7.395c1.963,1.977,4.581,3.066,7.367,3.066
		h22.106c5.728,0,10.39-4.661,10.39-10.39v-139.47c0-3.047,1.022-6.008,2.902-8.406l47.438-60.52
		c3.586-4.573,9.676-6.373,15.171-4.473c5.493,1.897,9.178,7.069,9.178,12.879V419.34c0,7.152,5.82,12.972,12.972,12.972h196.407
		c7.152,0,12.972-5.82,12.972-12.972V318.92c0-7.524,6.102-13.626,13.626-13.626s13.626,6.102,13.626,13.626v100.42
		C394.425,441.52,376.382,459.563,354.203,459.563z"/>
</g>
<path style="fill:#F4B2B0;" d="M299.815,379.553h-87.631c-18.068,0-32.715-14.646-32.715-32.715v-86.683h153.06v86.683
	C332.529,364.907,317.882,379.553,299.815,379.553z"/>
<g>
	<path style="fill:#B3404A;" d="M299.815,393.179h-87.631c-25.552,0-46.341-20.789-46.341-46.341v-86.681
		c0-7.524,6.102-13.626,13.626-13.626h153.06c7.524,0,13.626,6.102,13.626,13.626v86.681
		C346.154,372.39,325.367,393.179,299.815,393.179z M193.094,273.782v73.055c0,10.526,8.564,19.09,19.09,19.09h87.631
		c10.526,0,19.09-8.564,19.09-19.09v-73.055L193.094,273.782L193.094,273.782z"/>
	<path style="fill:#B3404A;" d="M279.841,79.688H159.436c-7.524,0-13.626-6.102-13.626-13.626s6.102-13.626,13.626-13.626h120.405
		c7.524,0,13.626,6.102,13.626,13.626S287.366,79.688,279.841,79.688z"/>
	<path style="fill:#B3404A;" d="M204.833,175.605c-7.524,0-13.626-6.102-13.626-13.626v-60.664c0-7.524,6.102-13.626,13.626-13.626
		s13.626,6.102,13.626,13.626v60.664C218.459,169.505,212.357,175.605,204.833,175.605z"/>
	<path style="fill:#B3404A;" d="M307.166,202.859c-7.524,0-13.626-6.102-13.626-13.626V99.518c0-7.524,6.102-13.626,13.626-13.626
		c7.524,0,13.626,6.102,13.626,13.626v89.717C320.792,196.759,314.691,202.859,307.166,202.859z"/>
</g>
<g>
</g>
<g>
</g>
<g>
</g>
<g>
</g>
<g>
</g>
<g>
</g>
<g>
</g>
<g>
</g>
<g>
</g>
<g>
</g>
<g>
</g>
<g>
</g>
<g>
</g>
<g>
</g>
<g>
</g>
</svg>
