<svg height="512pt" viewBox="0 -4 512 512" width="512pt" xmlns="http://www.w3.org/2000/svg"><path d="m10 409.105469v-87.875c0-14.363281 11.644531-26.007813 26.007812-26.007813h180.148438c14.367188 0 26.007812 11.644532 26.007812 26.007813v87.875zm0 0" fill="#b1e9f9"/><path d="m42.929688 93.917969v112.15625c0 47.449219 60.003906 59.480469 63.722656 60.484375l-.390625 28.664062h-13.199219v7.078125c0 18.234375 14.785156 33.019531 33.019531 33.019531 18.238281 0 33.019531-14.785156 33.019531-33.019531v-7.078125h-12.285156l-.390625-28.667968c3.714844-1.003907 63.722657-12.804688 63.722657-60.480469v-114.773438" fill="#fbcbc5"/><path d="m210.152344 128.617188v46.105468s14.082031-55.386718 14.089844-102.496094c.003906-32.472656-14.046876-62.253906-14.089844-62.226562l-2.984375 2.382812c-20.84375 16.679688-48.066407 23.132813-74.175781 17.582032-29.628907-6.296875-60.09375 6.453125-76.285157 32.050781-.179687.285156-.273437.433594-.273437.433594-19.765625 0-34.917969 17.5625-32.019532 37.117187l18.515626 66.679688v-35.539063c0-8.777343 7.113281-15.894531 15.890624-15.894531h42.679688c24.691406 0 48.445312-9.4375 66.402344-26.382812" fill="#ffe787"/><path d="m74.695312 178.558594c-4.828124 0-9.078124-3.503906-9.859374-8.425782-.820313-5.132812 2.425781-9.976562 7.359374-11.253906.058594-.246094.128907-.488281.207032-.730468 1.710937-5.253907 7.359375-8.121094 12.609375-6.40625l12.691406 4.136718c4.394531 1.433594 7.230469 5.6875 6.871094 10.292969-.363281 4.605469-3.835938 8.363281-8.394531 9.089844l-19.894532 3.171875c-.535156.085937-1.066406.125-1.589844.125zm0 0"/><path d="m178.382812 178.558594c-.523437 0-1.054687-.039063-1.585937-.125l-19.894531-3.171875c-4.5625-.726563-8.03125-4.484375-8.394532-9.089844-.363281-4.605469 2.476563-8.859375 6.867188-10.292969l12.695312-4.140625c5.25-1.710937 10.894532 1.15625 12.605469 6.40625.082031.246094.148438.488281.210938.734375 4.929687 1.273438 8.175781 6.117188 7.359375 11.253906-.785156 4.917969-5.035156 8.425782-9.863282 8.425782zm0 0"/><path d="m280.453125 452.367188h158.871094v-96.480469c0-15.769531-12.785157-28.554688-28.554688-28.554688h-197.792969c-15.769531 0-28.554687 12.785157-28.554687 28.554688v96.480469" fill="#6bcdf5"/><path d="m233.03125 462.363281c-.652344 0-1.3125-.058593-1.960938-.191406-.628906-.128906-1.261718-.320313-1.871093-.570313-.597657-.25-1.179688-.558593-1.71875-.917968-.550781-.371094-1.058594-.78125-1.519531-1.242188-.460938-.46875-.882813-.976562-1.25-1.527344-.359376-.539062-.671876-1.121093-.921876-1.722656-.25-.609375-.4375-1.226562-.570312-1.867187-.128906-.652344-.1875-1.3125-.1875-1.960938 0-.648437.058594-1.308593.1875-1.949219.132812-.640624.320312-1.269531.570312-1.871093.25-.601563.5625-1.191407.921876-1.730469.367187-.550781.789062-1.058594 1.25-1.519531.460937-.460938.96875-.878907 1.519531-1.238281.539062-.363282 1.121093-.671876 1.71875-.921876.609375-.25 1.242187-.441406 1.871093-.570312 1.289063-.257812 2.621094-.257812 3.910157 0 .640625.128906 1.269531.320312 1.871093.570312.609376.25 1.1875.558594 1.726563.921876.550781.359374 1.0625.777343 1.523437 1.238281.460938.460937.878907.96875 1.238282 1.519531.359375.539062.671875 1.128906.921875 1.730469.25.601562.4375 1.230469.566406 1.871093.132813.640626.203125 1.300782.203125 1.949219 0 .648438-.070312 1.308594-.203125 1.960938-.128906.628906-.316406 1.257812-.566406 1.867187-.25.601563-.5625 1.183594-.921875 1.722656-.359375.550782-.78125 1.058594-1.238282 1.527344-.460937.460938-.972656.871094-1.523437 1.242188-.539063.359375-1.117187.667968-1.726563.917968-.601562.25-1.230468.441407-1.871093.570313s-1.300781.191406-1.949219.191406zm0 0"/><path d="m220.574219 106.316406v123.136719c0 52.097656 65.882812 65.304687 69.964843 66.40625l-.429687 31.472656h-14.488281v7.769531c0 20.019532 16.230468 36.25 36.25 36.25 20.023437 0 36.253906-16.230468 36.253906-36.25v-7.769531h-13.488281l-.429688-31.472656c4.078125-1.101563 69.964844-14.058594 69.964844-66.40625v-126.011719" fill="#e1be9c"/><path d="m404.171875 151.457031c29.617187-51.417969.050781-116.578125 0-116.550781-14.144531 19.050781-45.8125 12.726562-74.898437-1.425781-34.585938-16.824219-76.445313 3.664062-93.738282 38.015625-.089844.175781-.132812.269531-.132812.269531-65.136719-10.324219-14.828125 113.960937-14.828125 113.960937v-39.019531c0-9.640625 7.8125-17.453125 17.449219-17.453125h89.066406l20.347656-29.214844h10.363281" fill="#6f6797"/><path d="m255.457031 198.265625c-4.832031 0-9.078125-3.507813-9.863281-8.429687-.851562-5.332032 2.683594-10.351563 7.9375-11.382813.082031-.441406.191406-.878906.335938-1.316406 1.710937-5.25 7.355468-8.121094 12.605468-6.40625l13.9375 4.542969c4.394532 1.433593 7.230469 5.6875 6.871094 10.292968-.363281 4.605469-3.835938 8.363282-8.394531 9.089844l-21.84375 3.480469c-.53125.085937-1.0625.128906-1.585938.128906zm0 0"/><path d="m369.289062 198.265625c-.519531 0-1.050781-.042969-1.585937-.128906l-21.839844-3.480469c-4.5625-.726562-8.03125-4.484375-8.394531-9.089844-.363281-4.605468 2.476562-8.859375 6.871094-10.292968l13.933594-4.542969c5.25-1.710938 10.894531 1.15625 12.609374 6.40625.140626.4375.253907.875.332032 1.316406 5.257812 1.03125 8.789062 6.050781 7.941406 11.382813-.785156 4.921874-5.035156 8.429687-9.867188 8.429687zm0 0"/><path d="m502 431.109375c0 35.214844-28.542969 63.757813-63.757812 63.757813-35.210938 0-63.753907-28.542969-63.753907-63.757813 0-35.210937 28.542969-63.753906 63.753907-63.753906 35.214843 0 63.757812 28.542969 63.757812 63.753906zm0 0" fill="#f3777a"/><path d="m449.066406 358.148438c.167969-.726563.257813-1.484376.257813-2.261719 0-21.257813-17.296875-38.554688-38.554688-38.554688h-66.265625l-.191406-13.746093c12.816406-3.609376 24.28125-8.546876 34.160156-14.710938 23.355469-14.582031 35.699219-35.128906 35.699219-59.421875v-75.398437c12.210937-22.632813 16.019531-50.808594 11.007813-81.691407-2.011719-12.414062-5.089844-22.945312-7.316407-29.59375-4.171875-12.460937-5.683593-13.988281-6.585937-14.898437-2.050782-2.074219-4.902344-3.148438-7.8125-2.9375-2.910156.207031-5.582032 1.671875-7.320313 4.011718-13.132812 17.6875-51.15625 1.0625-62.496093-4.453124-18.960938-9.226563-40.871094-9.359376-61.691407-.375-15.152343 6.535156-28.601562 17.582031-38.289062 31.1875-1.246094-13.082032-4.308594-24.296876-6.976563-32.074219-1.964844-5.738281-3.933594-10.273438-5.242187-13.0625-2.355469-5.039063-3.425781-7.148438-6.253907-8.800781-3.570312-2.089844-8.058593-1.761719-11.289062.824218l-2.984375 2.386719c-18.574219 14.863281-42.578125 20.558594-65.851563 15.609375-32.085937-6.816406-65.335937 6.234375-84.222656 32.632812-10.226562 1.355469-19.667968 6.410157-26.492187 14.324219-8.058594 9.335938-11.640625 21.6875-9.832031 33.886719.0625.40625.144531.8125.257812 1.210938l18.148438 65.367187v38.464844c0 22.382812 11.414062 41.34375 33.003906 54.832031 8.902344 5.558594 19.171875 10.03125 30.613281 13.339844l-.148437 10.976562h-60.390626c-19.855468 0-36.007812 16.15625-36.007812 36.007813v87.875c0 5.523437 4.476562 10 10 10h164.421875v33.261719c0 5.523437 4.476563 10 10 10s10-4.476563 10-10v-96.480469c0-10.230469 8.324219-18.554688 18.554687-18.554688h52.699219c1.167969 24.472657 21.441407 44.019531 46.195313 44.019531 24.757812 0 45.03125-19.546874 46.199218-44.019531h52.699219c10.230469 0 18.554688 8.324219 18.554688 18.554688 0 .679687.066406 1.339843.195312 1.980469-36.570312 4.332031-65.03125 35.527343-65.03125 73.242187 0 3.828125.292969 7.585937.859375 11.257813h-84.894531c-5.523437 0-10 4.476562-10 10 0 5.523437 4.476563 10 10 10h90.992187c11.785157 25.085937 37.296876 42.5 66.800782 42.5 40.667968 0 73.753906-33.085938 73.753906-73.757813 0-36.992187-27.375-67.710937-62.933594-72.960937zm-396.136718-152.074219v-75.367188c0-3.25 2.640624-5.894531 5.890624-5.894531h42.679688c27.355469 0 53.371094-10.335938 73.265625-29.109375 4.015625-3.789063 4.199219-10.121094.410156-14.136719-3.789062-4.015625-10.117187-4.199218-14.136719-.410156-16.164062 15.253906-37.308593 23.65625-59.535156 23.65625h-42.683594c-8.019531 0-15.203124 3.667969-19.957031 9.414062l-4.632812-16.683593c-.765625-6.257813 1.136719-12.546875 5.265625-17.335938 4.253906-4.929687 10.425781-7.757812 16.9375-7.757812 3.472656 0 6.703125-1.808594 8.519531-4.765625l.203125-.324219c13.871094-21.929687 40.292969-33.023437 65.757812-27.613281 26.230469 5.578125 53.199219.367187 75.296876-14.292969 3.367187 8.738281 7.421874 22.347656 7.96875 38.171875-6.015626 2.347656-10.164063 6.035156-12.957032 9.546875-10.8125 13.601563-12.113281 37-3.972656 71.535156.914062 3.882813 1.898438 7.671875 2.902344 11.292969v50.074219c0 33.816406-38.542969 46.601562-55.113282 50.527343-.566406.132813-.980468.234376-1.21875.300782-4.410156 1.191406-7.453124 5.222656-7.390624 9.789062l.390624 28.667969c.074219 5.46875 4.527344 9.863281 10 9.863281h2.097657c-1.441407 11.316406-11.132813 20.09375-22.832031 20.09375-11.703126 0-21.394532-8.777344-22.835938-20.09375h3.011719c5.46875 0 9.921875-4.394531 10-9.863281l.390625-28.667969c.0625-4.566406-2.980469-8.597656-7.394532-9.789062-.226562-.0625-.617187-.15625-1.15625-.285156-16.589843-3.96875-55.171874-16.839844-55.171874-50.542969zm227.316406 111.257812h-28.289063c-1.949219-18.027343-17.261719-32.109375-35.796875-32.109375h-59.476562l-.148438-10.957031c11.484375-3.292969 21.78125-7.757813 30.679688-13.3125 10.355468-6.464844 18.359375-14.203125 23.886718-22.992187 2.582032 20.527343 14.636719 37.988281 35.25 50.863281 9.878907 6.167969 21.316407 11.117187 34.082032 14.742187zm-105.824219 38.554688v43.21875h-154.421875v-77.875c0-8.824219 7.179688-16.007813 16.007812-16.007813h47.15625c1.507813 22.363282 20.179688 40.09375 42.917969 40.09375s41.414063-17.730468 42.921875-40.09375h47.152344c7.484375 0 13.785156 5.160156 15.53125 12.109375h-18.710938c-21.257812 0-38.554687 17.296875-38.554687 38.554688zm137.449219 5.464843c-13.722656 0-25.019532-10.585937-26.15625-24.019531h4.394531c5.46875 0 9.925781-4.394531 10-9.863281l.429687-31.472656c.0625-4.570313-2.980468-8.601563-7.390624-9.792969-.246094-.066406-.667969-.167969-1.246094-.308594-18.441406-4.410156-61.328125-18.742187-61.328125-56.441406v-82.746094c0-4.109375 3.34375-7.453125 7.453125-7.453125h89.0625c3.273437 0 6.335937-1.601562 8.207031-4.285156l17.363281-24.929688h5.140625c5.523438 0 10-4.476562 10-10 0-5.523437-4.476562-10-10-10h-10.363281c-3.273438 0-6.335938 1.597657-8.207031 4.285157l-17.363281 24.929687h-83.839844c-9.675782 0-18.195313 5.03125-23.085938 12.613282-3.859375-19.96875-4.449218-38.214844 1.9375-46.25 1.164063-1.460938 4.707032-5.917969 16.960938-3.976563 4.332031.6875 8.613281-1.546875 10.546875-5.484375l.082031-.164062c14.1875-28.183594 49.890625-48.375 80.429688-33.519532 31.28125 15.21875 57.480468 18.242188 74.769531 9.140625 3.449219 10.953125 7.613281 28.054688 7.625 46.761719-.980469-.320312-2.03125-.496094-3.121094-.496094-5.523437 0-10 4.476563-10 10v43.425782.28125 77.867187c0 37.824219-42.839844 52.0625-61.261719 56.429687-.609375.144532-1.054687.25-1.308594.320313-4.410156 1.191406-7.453124 5.222656-7.390624 9.792969l.429687 31.472656c.074219 5.46875 4.527344 9.863281 10 9.863281h3.390625c-1.136719 13.433594-12.433594 24.019531-26.160156 24.019531zm126.375 123.515626c-29.640625 0-53.757813-24.113282-53.757813-53.757813 0-29.640625 24.117188-53.753906 53.757813-53.753906s53.753906 24.113281 53.753906 53.753906c0 29.644531-24.113281 53.757813-53.753906 53.757813zm0 0"/><path d="m459.890625 441.109375h-43.292969c-5.523437 0-10-4.476563-10-10 0-5.519531 4.476563-10 10-10h43.292969c5.523437 0 10 4.480469 10 10 0 5.523437-4.476563 10-10 10zm0 0"/><path d="m289.902344 264.429688c-1.632813 0-3.289063-.398438-4.820313-1.246094-4.835937-2.664063-6.59375-8.75-3.925781-13.585938 5.660156-10.261718 17.914062-16.894531 31.214844-16.894531 13.304687 0 25.558594 6.632813 31.21875 16.898437 2.667968 4.835938.910156 10.917969-3.925782 13.585938-4.835937 2.667969-10.917968.90625-13.585937-3.929688-1.800781-3.261718-6.734375-6.554687-13.707031-6.554687-6.96875 0-11.902344 3.292969-13.703125 6.554687-1.820313 3.304688-5.238281 5.171876-8.765625 5.171876zm0 0"/><path d="m108.289062 239.613281c-1.570312 0-3.164062-.371093-4.652343-1.15625-4.882813-2.574219-6.757813-8.621093-4.183594-13.507812 4.816406-9.144531 15.269531-15.054688 26.628906-15.054688s21.8125 5.910157 26.632813 15.054688c2.574218 4.886719.699218 10.933593-4.1875 13.511719-4.882813 2.574218-10.933594.699218-13.507813-4.1875-1.109375-2.109376-4.382812-4.378907-8.9375-4.378907-4.554687 0-7.824219 2.269531-8.9375 4.378907-1.789062 3.398437-5.261719 5.339843-8.855469 5.339843zm0 0"/></svg>