<svg height="512pt" viewBox="-42 0 511 512" width="512pt" xmlns="http://www.w3.org/2000/svg"><path d="m128.5 128c-35.285156 0-64-28.714844-64-64s28.714844-64 64-64 64 28.714844 64 64-28.714844 64-64 64zm0-96c-17.644531 0-32 14.355469-32 32s14.355469 32 32 32 32-14.355469 32-32-14.355469-32-32-32zm0 0"/><path d="m187.167969 384c-8.832031 0-16-7.167969-16-16s7.167969-16 16-16c20.585937 0 37.332031-16.746094 37.332031-37.332031v-96c0-20.589844-16.746094-37.335938-37.332031-37.335938h-117.335938c-20.585937 0-37.332031 16.746094-37.332031 37.335938v96c0 20.585937 16.746094 37.332031 37.332031 37.332031 8.832031 0 16 7.167969 16 16s-7.167969 16-16 16c-38.226562 0-69.332031-31.105469-69.332031-69.332031v-96c0-38.230469 31.105469-69.335938 69.332031-69.335938h117.335938c38.226562 0 69.332031 31.105469 69.332031 69.335938v96c0 38.226562-31.105469 69.332031-69.332031 69.332031zm0 0"/><path d="m69.832031 512c-8.832031 0-16-7.167969-16-16v-250.667969c0-8.832031 7.167969-16 16-16s16 7.167969 16 16v250.667969c0 8.832031-7.167969 16-16 16zm0 0"/><path d="m187.167969 512c-8.832031 0-16-7.167969-16-16v-250.667969c0-8.832031 7.167969-16 16-16s16 7.167969 16 16v250.667969c0 8.832031-7.167969 16-16 16zm0 0"/><path d="m411.167969 133.332031h-176c-8.832031 0-16-7.167969-16-16s7.167969-16 16-16h176c8.832031 0 16 7.167969 16 16s-7.167969 16-16 16zm0 0"/><path d="m331.167969 213.332031c-4.097657 0-8.191407-1.554687-11.308594-4.691406-6.25-6.25-6.25-16.382813 0-22.636719l68.695313-68.691406-68.695313-68.695312c-6.25-6.25-6.25-16.382813 0-22.632813s16.382813-6.25 22.636719 0l80 80c6.25 6.25 6.25 16.382813 0 22.632813l-80 80c-3.136719 3.160156-7.234375 4.714843-11.328125 4.714843zm0 0"/><path d="m128.5 512c-8.832031 0-16-7.167969-16-16v-128c0-8.832031 7.167969-16 16-16s16 7.167969 16 16v128c0 8.832031-7.167969 16-16 16zm0 0"/></svg>