<?xml version="1.0"?>
<svg xmlns="http://www.w3.org/2000/svg" id="Outline" viewBox="0 0 64 64" width="512" height="512"><path d="M32,55a1.0013,1.0013,0,0,1-1,1H7a1.0013,1.0013,0,0,1-1-1V40a1.0013,1.0013,0,0,1,1-1H23V37H9a1,1,0,0,1,0-2h9V33H9a1,1,0,0,1,0-2h9V29H8a1.0013,1.0013,0,0,1-1-1V23a7.00787,7.00787,0,0,1,7-7h4V14H15V12h3V10H14a1.0013,1.0013,0,0,1-1-1V5a1.0013,1.0013,0,0,1,1-1h4V2H14a3.00328,3.00328,0,0,0-3,3V9a2.995,2.995,0,0,0,2,2.81567V14.059A9.01084,9.01084,0,0,0,5,23v5a2.99332,2.99332,0,0,0,1.40143,2.52917A2.92945,2.92945,0,0,0,6.78027,34a2.94742,2.94742,0,0,0-.56,3.11572A2.99586,2.99586,0,0,0,4,40V55a2.995,2.995,0,0,0,2,2.81567V59a3.00328,3.00328,0,0,0,3,3H29a3.00328,3.00328,0,0,0,3-3V57.81573A2.99507,2.99507,0,0,0,34,55V40H32Zm-3,5H9a1.0013,1.0013,0,0,1-1-1V58H30v1A1.0013,1.0013,0,0,1,29,60Z"/><path d="M57,2H23a3.00328,3.00328,0,0,0-3,3V31a3.00328,3.00328,0,0,0,3,3h1a1.0013,1.0013,0,0,1,1,1v3.773a1.97744,1.97744,0,0,0,1.18066,1.82471,2.01858,2.01858,0,0,0,.82666.1792,1.98424,1.98424,0,0,0,1.32178-.50879l6.76709-6.01563A.99938.99938,0,0,1,35.76025,34H57a3.00328,3.00328,0,0,0,3-3V5A3.00328,3.00328,0,0,0,57,2Zm1,29a1.0013,1.0013,0,0,1-1,1H35.76025a2.99711,2.99711,0,0,0-1.99316.75781L27,38.773V35a3.00328,3.00328,0,0,0-3-3H23a1.0013,1.0013,0,0,1-1-1V5a1.0013,1.0013,0,0,1,1-1H57a1.0013,1.0013,0,0,1,1,1Z"/><path d="M40.58594,13l-2.293,2.293L39.707,16.707,44.41406,12,39.707,7.293,38.293,8.707,40.58594,11H38a7.00787,7.00787,0,0,0-7,7v3h2V18a5.00588,5.00588,0,0,1,5-5Z"/><path d="M46,18a5.00588,5.00588,0,0,1-5,5H38.41406l2.293-2.293L39.293,19.293,34.58594,24l4.707,4.707L40.707,27.293,38.41406,25H41a7.00787,7.00787,0,0,0,7-7V15H46Z"/></svg>
