<svg height="488pt" viewBox="-4 0 488 488.00565" width="488pt" xmlns="http://www.w3.org/2000/svg"><path d="m400.003906 88.003906-160-80-160 80-72-72v392l72 72 160-80 40 20v-36h48v60l72 36 72-72v-392zm0 217.679688c-14.46875 24.074218-37.453125 41.835937-64.402344 49.761718-2.480468.796876-5.039062 1.4375-7.597656 2-15.820312 3.410157-32.183594 3.410157-48 0-2.5625-.5625-5.121094-1.203124-7.601562-2-11.578125-3.394531-22.523438-8.664062-32.398438-15.601562-49.953125-34.804688-62.953125-103.136719-29.273437-153.855469 33.679687-50.714843 101.707031-65.238281 153.160156-32.699219 51.457031 32.539063 67.496094 100.226563 36.113281 152.394532zm0 0" fill="#78b9eb"/><path d="m304.003906 168.003906c-44.183594 0-80 35.816406-80 80s35.816406 80 80 80 80-35.816406 80-80-35.816406-80-80-80zm0 136s-40-41.921875-40-64c0-22.089844 17.90625-40 40-40 22.089844 0 40 17.910156 40 40 0 22.078125-40 64-40 64zm0 0" fill="#78b9eb"/><path d="m320.003906 240.003906c0 8.835938-7.164062 16-16 16-8.835937 0-16-7.164062-16-16 0-8.835937 7.164063-16 16-16 8.835938 0 16 7.164063 16 16zm0 0" fill="#78b9eb"/><g fill="#1a6fb0"><path d="m475.066406 8.613281c-2.988281-1.238281-6.433594-.554687-8.71875 1.734375l-67.921875 67.921875-154.847656-77.425781c-2.25-1.125-4.898437-1.125-7.152344 0l-154.824219 77.425781-67.917968-67.921875c-2.285156-2.304687-5.738282-3-8.738282-1.757812-3 1.238281-4.9531245 4.167968-4.94140575 7.414062v392c0 2.121094.84374975 4.15625 2.34374975 5.65625l72 72c2.433594 2.433594 6.152344 3.039063 9.230469 1.503906l156.425781-78.214843 32 16v31.054687c.621094 17.035156 14.484375 30.589844 31.527344 30.828125s31.285156-12.921875 32.382812-29.933593l60.511719 30.304687c1.117188.539063 2.339844.8125 3.578125.800781 2.121094 0 4.15625-.84375 5.65625-2.34375l72-72c1.5-1.5 2.34375-3.535156 2.34375-5.65625v-392c0-3.234375-1.949218-6.152344-4.9375-7.390625zm-230.472656 154.101563c40.253906-27.984375 94.582031-24.058594 130.394531 9.421875 35.808594 33.484375 43.375 87.425781 18.160157 129.46875-14.78125 24.464843-38.933594 41.8125-66.839844 48-14.695313 3.140625-29.890625 3.140625-44.585938 0-40.363281-8.867188-71.644531-40.785157-79.695312-81.320313-8.050782-40.53125 8.65625-81.984375 42.566406-105.601562zm33.714844 202.554687c16.945312 3.652344 34.476562 3.652344 51.421875 0 .800781-.179687 1.601562-.464843 2.398437-.65625l3.875 5.789063v5.601562h-64v-5.601562l3.894532-5.824219c.808593.226563 1.59375.503906 2.410156.691406zm25.695312 106.734375c-8.835937 0-16-7.164062-16-16v-64h32v64c0 8.835938-7.164062 16-16 16zm160-67.3125-65.601562 65.601563-62.398438-31.203125v-47.085938h8c4.417969 0 8-3.582031 8-8v-16c0-1.585937-.472656-3.132812-1.351562-4.449218l-2.707032-4.039063c16.734376-6.589844 31.785157-16.832031 44.058594-29.976563v86.464844h16v-108.257812c21.332032-36.972656 21.332032-82.511719 0-119.488282v-52.253906h-16v30.542969c-22.738281-24.46875-54.597656-38.425781-88-38.542969-19.53125-.007812-38.765625 4.792969-56 13.984375v-69.984375h-16v80.304688c-34.742187 26.019531-52.671875 68.808594-46.859375 111.824218 5.8125 43.011719 34.457031 79.507813 74.859375 95.375l-2.679687 4c-.878907 1.332032-1.339844 2.898438-1.320313 4.496094v16c0 4.417969 3.582032 8 8 8h8v15.054688l-28.425781-14.214844c-2.25-1.125-4.898437-1.125-7.152344 0l-154.824219 77.425781-65.597656-65.578125v-369.375l58.34375 58.34375c2.433594 2.433594 6.152344 3.039063 9.230469 1.503906l156.425781-78.214843 156.421875 78.253906c3.082031 1.539063 6.800781.933594 9.234375-1.503906l58.34375-58.382813zm0 0"/><path d="m72.003906 112.003906h16v16h-16zm0 0"/><path d="m72.003906 144.003906h16v272h-16zm0 0"/><path d="m72.003906 432.003906h16v16h-16zm0 0"/><path d="m392.003906 112.003906h16v16h-16zm0 0"/><path d="m392.003906 432.003906h16v16h-16zm0 0"/><path d="m232.003906 40.003906h16v16h-16zm0 0"/><path d="m232.003906 360.003906h16v16h-16zm0 0"/><path d="m304.003906 312.003906c2.1875 0 4.28125-.894531 5.789063-2.480468 4.320312-4.519532 42.210937-44.9375 42.210937-69.519532 0-26.511718-21.492187-48-48-48-26.511718 0-48 21.488282-48 48 0 24.582032 37.886719 65 42.207032 69.519532 1.511718 1.585937 3.601562 2.480468 5.792968 2.480468zm0-104c17.671875 0 32 14.328125 32 32 0 12-17.777344 36.078125-32 52.167969-14.234375-16.070313-32-40.121094-32-52.167969 0-17.671875 14.324219-32 32-32zm0 0"/><path d="m328.003906 240.003906c0-13.253906-10.746094-24-24-24-13.257812 0-24 10.746094-24 24s10.742188 24 24 24c13.253906 0 24-10.746094 24-24zm-32 0c0-4.417968 3.582032-8 8-8 4.417969 0 8 3.582032 8 8 0 4.417969-3.582031 8-8 8-4.417968 0-8-3.582031-8-8zm0 0"/><path d="m304.003906 336.003906c48.601563 0 88-39.398437 88-88 0-48.601562-39.398437-88-88-88-48.601562 0-88 39.398438-88 88 .054688 48.578125 39.421875 87.941406 88 88zm0-160c39.761719 0 72 32.234375 72 72s-32.238281 72-72 72c-39.765625 0-72-32.234375-72-72 .042969-39.746094 32.253906-71.957031 72-72zm0 0"/></g></svg>