<svg height="512pt" viewBox="0 -26 512.00001 512" width="512pt" xmlns="http://www.w3.org/2000/svg"><path d="m460.503906 51.496094c-55.222656-55.222656-144.757812-55.222656-199.980468 0l-4.523438 4.527344-4.527344-4.527344c-55.21875-55.222656-144.753906-55.222656-199.976562 0s-55.222656 144.757812 0 199.980468l193.761718 193.761719c5.929688 5.933594 15.550782 5.933594 21.484376 0l189.234374-189.238281 4.527344-4.523438c55.222656-55.222656 55.222656-144.757812 0-199.980468zm0 0" fill="#ff6c6c"/><path d="m255.613281 215.214844s-4.175781-72.777344 97.234375-84.707032c0 0-4.175781 90.671876-97.234375 84.707032zm0 0" fill="#ccfc5c"/><path d="m255.703125 215.554688s4.175781-72.777344-97.234375-84.707032c0 0 4.175781 90.671875 97.234375 84.707032zm0 0" fill="#78e08f"/><path d="m255.703125 215.726562s4.175781 72.777344-97.234375 84.707032c0 0 4.175781-90.671875 97.234375-84.707032zm0 0" fill="#ccfc5c"/><path d="m255.613281 215.390625s-4.175781 72.773437 97.234375 84.707031c0 0-4.175781-90.671875-97.234375-84.707031zm0 0" fill="#78e08f"/><path d="m467.628906 44.371094c-58.203125-58.203125-152.378906-59.050782-211.628906-2.542969-28.296875-27.003906-65.265625-41.828125-104.515625-41.828125-40.460937 0-78.503906 15.757812-107.113281 44.371094-28.613282 28.609375-44.371094 66.652344-44.371094 107.113281 0 40.464844 15.757812 78.507813 44.371094 107.117187l193.757812 193.761719c4.246094 4.246094 9.636719 6.65625 15.1875 7.242188.726563.167969 1.476563.261719 2.253906.261719.554688 0 1.097657-.054688 1.628907-.140626 6.066406-.285156 12.046875-2.742187 16.671875-7.363281l193.757812-193.761719c28.613282-28.609374 44.371094-66.652343 44.371094-107.117187 0-40.460937-15.757812-78.503906-44.371094-107.113281zm-14.25 199.976562-187.730468 187.730469v-29.125c0-5.570313-4.511719-10.082031-10.078126-10.082031-5.570312 0-10.082031 4.511718-10.082031 10.082031v28.261719l-186.863281-186.867188c-51.207031-51.203125-51.207031-134.519531 0-185.722656 25.601562-25.601562 59.230469-38.40625 92.859375-38.40625 33.632813 0 67.261719 12.804688 92.863281 38.40625l4.523438 4.523438c3.9375 3.9375 10.320312 3.9375 14.257812 0l4.523438-4.523438c24.804687-24.804688 57.78125-38.464844 92.863281-38.464844 35.078125 0 68.054687 13.660156 92.863281 38.464844 24.804688 24.804688 38.464844 57.785156 38.464844 92.863281-.003906 35.078125-13.664062 68.054688-38.464844 92.859375zm0 0"/><path d="m261.105469 365.839844-.273438-.175782c-4.671875-3.027343-10.914062-1.695312-13.941406 2.976563-3.027344 4.667969-1.695313 10.910156 2.976563 13.9375l.273437.179687c1.695313 1.097657 3.59375 1.621094 5.472656 1.621094 3.300781 0 6.539063-1.621094 8.46875-4.597656 3.027344-4.667969 1.695313-10.910156-2.976562-13.941406zm0 0"/><path d="m362.914062 130.972656c.136719-2.957031-1.03125-5.824218-3.199218-7.839844-2.164063-2.019531-5.105469-2.984374-8.046875-2.636718-56.484375 6.644531-82.371094 31.789062-94.144531 51.710937-.695313 1.175781-1.339844 2.34375-1.957032 3.507813-.5625-1.050782-1.148437-2.109375-1.777344-3.167969-11.769531-19.921875-37.660156-45.066406-94.144531-51.710937-2.9375-.347657-5.878906.617187-8.046875 2.632812-2.164062 2.019531-3.335937 4.882812-3.199218 7.839844.082031 1.789062 2.371093 44.117187 33.238281 71.757812 5.605469 5.023438 11.773437 9.203125 18.460937 12.578125-6.6875 3.371094-12.855468 7.546875-18.460937 12.570313-30.867188 27.640625-33.15625 69.96875-33.238281 71.757812-.136719 2.957032 1.035156 5.820313 3.199218 7.839844 1.875 1.746094 4.335938 2.703125 6.871094 2.703125.390625 0 .785156-.023437 1.175781-.070313 45.808594-5.386718 71.492188-22.945312 85.84375-40.015624v72.855468c0 5.566406 4.511719 10.078125 10.082031 10.078125 5.566407 0 10.078126-4.511719 10.078126-10.078125v-73.402344c14.316406 17.136719 40.023437 34.8125 86.019531 40.226563.394531.042969.789062.066406 1.179687.066406 2.535156 0 4.992188-.957031 6.867188-2.703125 2.167968-2.015625 3.335937-4.882812 3.199218-7.839844-.082031-1.789062-2.371093-44.117187-33.234374-71.757812-5.605469-5.023438-11.777344-9.199219-18.460938-12.570312 6.6875-3.375 12.855469-7.554688 18.460938-12.574219 30.863281-27.644531 33.152343-69.972657 33.234374-71.757813zm-167.707031 57.1875c-15.421875-13.738281-21.984375-32.867187-24.738281-45.285156 58.308594 11.152344 71.464844 45.515625 74.375 62.515625-1.480469.023437-2.945312.078125-4.402344.152344-18.332031-1.121094-33.511718-6.9375-45.234375-17.382813zm41.226563 60.320313c-12.132813 20.53125-34.292969 33.933593-65.96875 39.9375 2.753906-12.421875 9.320312-31.554688 24.742187-45.300781 11.730469-10.453126 26.921875-16.269532 45.28125-17.382813 1.414063.070313 2.84375.113281 4.289063.140625-1.050782 5.984375-3.34375 14.144531-8.34375 22.605469zm79.671875-5.699219c15.421875 13.738281 21.984375 32.867188 24.738281 45.285156-58.328125-11.15625-71.476562-45.535156-74.378906-62.53125 1.460937-.023437 2.914062-.066406 4.347656-.140625 18.363281 1.117188 33.5625 6.929688 45.292969 17.386719zm.125-55.066406c-11.738281 10.511718-26.949219 16.359375-45.347657 17.488281-1.457031-.074219-2.925781-.128906-4.414062-.152344 2.910156-17.003906 16.074219-51.378906 74.421875-62.523437-2.714844 12.351562-9.222656 31.359375-24.660156 45.1875zm0 0"/></svg>